<svg width="715" height="505" viewBox="0 0 715 505" fill="none" xmlns="http://www.w3.org/2000/svg">
<g clip-path="url(#clip0_326_3)">
<mask id="mask0_326_3" style="mask-type:luminance" maskUnits="userSpaceOnUse" x="0" y="0" width="715" height="505">
<path d="M0 -0.000137092H714.424V504.033H0V-0.000137092Z" fill="white"/>
</mask>
<g mask="url(#mask0_326_3)">
<path d="M515.236 237.791H464.432V152.429H513.88C539.629 152.429 566.053 164.618 566.053 195.446C566.053 226.943 540.642 237.791 515.236 237.791ZM511.174 132.097H442.076V371.933H464.432V258.11H516.261C553.862 258.11 588.409 238.803 588.409 195.446C588.409 145.311 545.052 132.097 511.174 132.097Z" fill="white"/>
<path d="M298.49 191.722C298.49 161.225 323.558 146.324 352.343 146.324C373.006 146.324 387.921 154.452 399.098 170.034L418.399 156.152C402.147 134.808 379.105 126.01 353.025 126.01C312.717 126.01 276.134 149.034 276.134 191.722C276.134 282.834 399.767 243.552 399.767 310.621C399.767 339.413 376.055 357.7 345.914 357.7C322.202 357.7 302.895 347.534 291.035 327.546L269.691 341.78C288.323 367.866 316.098 378.02 347.607 378.02C386.565 378.02 422.123 353.982 422.123 310.621C422.123 220.509 298.49 263.87 298.49 191.722Z" fill="white"/>
<path d="M253.446 195.432C253.446 132.425 187.058 132.425 168.083 132.425H126.014V152.789H127.433V152.757H174.857C221.949 152.757 231.09 178.837 231.09 195.432C231.09 212.027 221.949 238.12 174.857 238.12H145.433V238.201H126.014V258.471H127.433V258.44H169.107L236.507 372.263H261.913L192.133 257.083C218.557 253.703 253.446 241.157 253.446 195.432Z" fill="white"/>
</g>
<mask id="mask1_326_3" style="mask-type:luminance" maskUnits="userSpaceOnUse" x="0" y="0" width="715" height="505">
<path d="M0 -0.000137092H714.424V504.033H0V-0.000137092Z" fill="white"/>
</mask>
<g mask="url(#mask1_326_3)">
<path d="M515.236 237.791H464.432V152.429H513.88C539.629 152.429 566.053 164.618 566.053 195.446C566.053 226.943 540.642 237.791 515.236 237.791ZM511.174 132.097H442.076V371.933H464.432V258.11H516.261C553.862 258.11 588.409 238.803 588.409 195.446C588.409 145.311 545.052 132.097 511.174 132.097Z" fill="#58595B"/>
<path d="M298.49 191.722C298.49 161.225 323.558 146.324 352.343 146.324C373.006 146.324 387.921 154.452 399.098 170.034L418.399 156.152C402.147 134.808 379.105 126.01 353.025 126.01C312.717 126.01 276.134 149.034 276.134 191.722C276.134 282.834 399.767 243.552 399.767 310.621C399.767 339.413 376.055 357.7 345.914 357.7C322.202 357.7 302.895 347.534 291.035 327.546L269.691 341.78C288.323 367.866 316.098 378.02 347.607 378.02C386.565 378.02 422.123 353.982 422.123 310.621C422.123 220.509 298.49 263.87 298.49 191.722Z" fill="#58595B"/>
<path d="M253.446 195.432C253.446 132.425 187.058 132.425 168.083 132.425H126.014V152.789H127.433V152.757H174.857C221.949 152.757 231.09 178.837 231.09 195.432C231.09 212.027 221.949 238.12 174.857 238.12H145.433V238.201H126.014V258.471H127.433V258.44H169.107L236.507 372.263H261.913L192.133 257.083C218.557 253.703 253.446 241.157 253.446 195.432Z" fill="#58595B"/>
</g>
</g>
<defs>
<clipPath id="clip0_326_3">
<rect width="714.424" height="504.033" fill="white"/>
</clipPath>
</defs>
</svg>
